<?xml version="1.0" standalone="no"?>
<!DOCTYPE svg PUBLIC "-//W3C//DTD SVG 20010904//EN" "http://www.w3.org/TR/2001/REC-SVG-20010904/DTD/svg10.dtd">
<!-- Created using Krita: http://krita.org -->
<svg xmlns="http://www.w3.org/2000/svg" 
    xmlns:xlink="http://www.w3.org/1999/xlink"
    xmlns:krita="http://krita.org/namespaces/svg/krita"
    xmlns:sodipodi="http://sodipodi.sourceforge.net/DTD/sodipodi-0.dtd"
    width="576pt"
    height="576pt"
    viewBox="0 0 576 576">
<defs/>
<rect id="shape0" transform="matrix(0.719999999999999 0 0 0.719999999999999 19.2337434094906 111.49056)" fill="#ffe000" width="747.479467486819" height="44.444"/><rect id="shape1" transform="matrix(0.719999999999999 0 0 0.719999999999999 296.57016 142.77024)" fill="#ed1f34" width="363.29" height="59.347"/><rect id="shape2" transform="matrix(0.719999999999999 0 0 0.719999999999999 18.2214411247803 143.49024)" fill="#ed1f34" width="748.88544288225" height="57.347"/><rect id="shape3" transform="matrix(0.719999999999999 0 0 0.719999999999999 18.2214411247803 184.78008)" fill="#ffe000" width="748.88544288225" height="57.347"/><rect id="shape4" transform="matrix(0.719999999999999 0 0 0.719999999999999 296.57016 225.35136)" fill="#ed1f34" width="363.29" height="59.347"/><rect id="shape5" transform="matrix(0.719999999999999 0 0 0.719999999999999 19.2337434094906 226.07136)" fill="#ed1f34" width="747.479467486819" height="57.347"/><path id="shape6" transform="matrix(0.719999999999999 0 0 0.719999999999999 18.5806800000004 267.247803163445)" fill="#ffe000" d="M748.386 0.148996L387.096 0.148996L2.31301 0L0 57.496L748.387 57.496L748.386 0.148996Z"/><rect id="shape7" transform="matrix(0.719999999999999 0 0 0.719999999999999 17.8610400000001 307.93176)" fill="#ed1f34" width="750.387" height="59.347"/><rect id="shape8" transform="matrix(0.719999999999999 0 0 0.719999999999999 18.5810400000001 308.65176)" fill="#ed1f34" width="748.387" height="57.347"/><rect id="shape9" transform="matrix(0.719999999999999 0 0 0.719999999999999 18.5810400000001 349.94232)" fill="#ffe000" width="748.387" height="57.347"/><rect id="shape10" transform="matrix(0.719999999999999 0 0 0.719999999999999 17.8610400000001 390.51216)" fill="#ed1f34" width="750.387" height="59.348"/><rect id="shape11" transform="matrix(0.719999999999999 0 0 0.719999999999999 18.5810400000001 391.23216)" fill="#ed1f34" width="748.387" height="57.348"/><path id="shape12" transform="matrix(0.719999999999999 0 0 0.719999999999999 18.5810400000001 432.52344)" fill="#ffe000" d="M90.322 44.444L748.386 44.444L748.386 0L0 0L0 44.444L38.709 44.444C45.837 44.444 51.612 50.219 51.612 57.347L77.418 57.347C77.419 50.219 83.194 44.444 90.322 44.444Z"/><path id="shape13" transform="translate(3.25073301610246e-13, 92.8969200000002)" fill="#000000" fill-rule="evenodd" d="M566.71 0.01296L288.24 0.01296C288.16 0.01152 288.081 0 288 0C287.919 0 287.84 0.01008 287.76 0.01296L9.29016 0.01296C4.158 0.01296 0 4.17096 0 9.30312L0 380.916C0 386.048 4.158 390.206 9.29016 390.206L46.4515 390.206C51.5837 390.206 55.7417 386.048 55.7417 380.916L55.7417 380.916C55.7417 375.784 51.5837 371.626 46.4515 371.626L18.581 371.626L18.581 339.626L18.581 298.336L18.581 257.046L18.581 215.756L18.581 204.394L19.2337 17.444L557.419 18.5933L557.419 50.593L557.419 91.8828L557.419 133.173L557.419 174.462L557.419 215.752L557.419 257.042L557.419 298.333L557.419 339.623L557.419 371.622L83.6129 371.622C78.4814 371.622 74.3227 375.78 74.3227 380.912L74.3227 380.912C74.3227 386.045 78.4814 390.203 83.6129 390.203L566.71 390.203C571.842 390.203 576 386.045 576 380.912L576 9.29952C576 4.17096 571.842 0.01296 566.71 0.01296Z"/><g id="group0" transform="matrix(0.72 0 0 0.72 0 0)" fill="none"/><g id="group1" transform="matrix(0.72 0 0 0.72 0 0)" fill="none"/><g id="group2" transform="matrix(0.72 0 0 0.72 0 0)" fill="none"/><g id="group3" transform="matrix(0.72 0 0 0.72 0 0)" fill="none"/><g id="group4" transform="matrix(0.72 0 0 0.72 0 0)" fill="none"/><g id="group5" transform="matrix(0.72 0 0 0.72 0 0)" fill="none"/><g id="group6" transform="matrix(0.72 0 0 0.72 0 0)" fill="none"/><g id="group7" transform="matrix(0.72 0 0 0.72 0 0)" fill="none"/><g id="group8" transform="matrix(0.72 0 0 0.72 0 0)" fill="none"/><g id="group9" transform="matrix(0.72 0 0 0.72 0 0)" fill="none"/><g id="group10" transform="matrix(0.72 0 0 0.72 0 0)" fill="none"/><g id="group11" transform="matrix(0.72 0 0 0.72 0 0)" fill="none"/><g id="group12" transform="matrix(0.72 0 0 0.72 0 0)" fill="none"/><g id="group13" transform="matrix(0.72 0 0 0.72 0 0)" fill="none"/><g id="group14" transform="matrix(0.72 0 0 0.72 0 0)" fill="none"/><path id="shape14" transform="matrix(0.72 0 0 0.72 17.86104 118.206)" fill="#164fce" d="M0 0L136.288 90.859L136.367 90.918L353.734 235.825L0 471.647ZM166.151 299.856C168.087 301.115 170.331 301.781 172.64 301.781C175.169 301.781 177.589 300.995 179.638 299.507C183.6 296.629 185.409 291.518 184.138 286.788L172.157 242.202L208.055 213.175C211.863 210.097 213.405 204.9 211.891 200.242C210.378 195.583 206.076 192.284 201.184 192.032L155.08 189.651L138.569 146.54C136.818 141.968 132.35 138.895 127.452 138.895C122.554 138.895 118.087 141.967 116.336 146.54L99.825 189.651L53.72 192.032C48.829 192.284 44.527 195.584 43.013 200.242C41.499 204.9 43.041 210.097 46.848 213.175L82.746 242.201L70.765 286.786C69.494 291.515 71.302 296.627 75.265 299.504C77.312 300.992 79.732 301.778 82.263 301.778C84.573 301.778 86.816 301.113 88.753 299.854L127.452 274.679Z"/><path id="shape15" transform="matrix(0.72 0 0 0.72 18.58104 119.55168)" fill="#164fce" d="M134.7 378.111C134.716 378.098 134.733 378.089 134.748 378.076L289.543 274.882C289.557 274.873 289.57 274.863 289.584 274.855L350.931 233.956L289.583 193.058C289.569 193.049 289.556 193.039 289.542 193.03L134.749 89.836C134.733 89.824 134.716 89.814 134.701 89.801L0 0L0 467.91ZM45.219 212.084C41.062 208.724 39.409 203.148 41.061 198.064C42.712 192.98 47.329 189.439 52.667 189.164L98.123 186.816L114.401 144.313C116.313 139.322 121.106 136.026 126.451 136.026C131.797 136.026 136.59 139.322 138.501 144.313L154.78 186.816L200.235 189.164C205.574 189.439 210.19 192.98 211.841 198.064C213.493 203.148 211.84 208.724 207.683 212.084L172.29 240.702L184.103 284.659C185.49 289.82 183.551 295.305 179.226 298.446C176.969 300.086 174.307 300.912 171.641 300.912C169.196 300.912 166.75 300.22 164.606 298.825L126.452 274.004L88.298 298.823C83.818 301.736 78.003 301.588 73.678 298.444C69.353 295.302 67.414 289.818 68.801 284.657L80.614 240.7Z"/><path id="shape16" transform="matrix(0.72 0 0 0.72 81.68256 252.7524)" fill="#ffffff" d="M20.073 54.292L14.825 73.818L31.775 62.795C33.914 61.402 36.362 60.707 38.81 60.707C41.258 60.707 43.706 61.402 45.845 62.795L62.795 73.818L57.547 54.292C56.222 49.365 57.927 44.119 61.895 40.91L77.62 28.196L57.426 27.154C52.33 26.891 47.867 23.648 46.042 18.882L38.811 0L31.578 18.882C29.753 23.648 25.29 26.889 20.194 27.154L0 28.196L15.725 40.91C19.693 44.119 21.396 49.365 20.073 54.292Z"/><path id="shape17" transform="matrix(0.72 0 0 0.72 47.6896162146843 217.48824)" fill="#000000" d="M33.2484 162.421C37.5734 165.565 43.3884 165.713 47.8684 162.8L86.0224 137.981L124.176 162.8C126.32 164.196 128.766 164.887 131.211 164.887C133.878 164.887 136.539 164.063 138.796 162.421C143.121 159.279 145.06 153.795 143.673 148.634L131.86 104.677L167.253 76.059C171.41 72.699 173.063 67.123 171.412 62.039C169.76 56.956 165.144 53.414 159.806 53.14L114.351 50.791L98.0724 8.288C96.1604 3.297 91.3674 0 86.0224 0C80.6764 0 75.8834 3.296 73.9724 8.288L57.6944 50.791L12.2384 53.14C6.90042 53.415 2.28342 56.956 0.632422 62.039C-1.01958 67.123 0.633422 72.699 4.79042 76.059L40.1834 104.677L28.3704 148.634C26.9844 153.795 28.9254 159.28 33.2484 162.421ZM67.4074 76.132C72.5034 75.869 76.9664 72.626 78.7914 67.86L86.0234 48.978L93.2564 67.86C95.0814 72.626 99.5444 75.867 104.64 76.132L124.834 77.174L109.109 89.888C105.142 93.097 103.437 98.343 104.761 103.27L110.009 122.796L93.0594 111.773C90.9204 110.38 88.4724 109.685 86.0244 109.685C83.5764 109.685 81.1284 110.38 78.9894 111.773L62.0394 122.796L67.2874 103.27C68.6124 98.343 66.9074 93.097 62.9394 89.888L47.2144 77.174Z"/><path id="shape18" transform="matrix(0.72 0 0 0.72 0.00288000000000086 92.90304)" fill="#000000" d="M403.996 259.468C334.718 213.956 204.352 127.467 12.899 0C12.894 0 12.889 0 12.883 0C12.449 0.002 12.018 0.022 11.588 0.065C11.424 0.082 11.265 0.115 11.103 0.139C10.852 0.175 10.601 0.202 10.353 0.252C10.073 0.307 9.803 0.384 9.529 0.459C9.4 0.493 9.268 0.519 9.14 0.559C8.884 0.638 8.638 0.733 8.388 0.826C8.243 0.879 8.096 0.926 7.953 0.986C7.745 1.072 7.545 1.172 7.344 1.27C7.165 1.356 6.983 1.436 6.807 1.528C6.654 1.611 6.511 1.705 6.362 1.793C6.145 1.918 5.926 2.044 5.716 2.185C5.615 2.252 5.518 2.331 5.419 2.402C5.178 2.576 4.937 2.746 4.707 2.937C4.633 2.998 4.564 3.066 4.492 3.13C4.249 3.338 4.01 3.547 3.782 3.775C3.656 3.899 3.544 4.037 3.426 4.168C3.264 4.343 3.097 4.51 2.945 4.698C2.67 5.03 2.413 5.379 2.173 5.739C2.171 5.742 2.168 5.746 2.164 5.749C2.137 5.79 2.116 5.835 2.088 5.876C1.883 6.191 1.689 6.509 1.512 6.843C1.45 6.96 1.398 7.082 1.34 7.199C1.213 7.459 1.084 7.719 0.974 7.985C0.903 8.157 0.847 8.331 0.783 8.505C0.704 8.725 0.619 8.944 0.551 9.169C0.484 9.39 0.434 9.613 0.381 9.835C0.337 10.019 0.285 10.201 0.247 10.387C0.192 10.662 0.158 10.939 0.122 11.215C0.103 11.358 0.078 11.497 0.062 11.64C0.027 11.994 0.014 12.349 0.009 12.705C0.009 12.769 0 12.834 0 12.905L0 12.945C0 12.962 0 12.978 0 12.993L0 528.943C0 528.96 0 528.975 0 528.991L0 529.031C0 529.099 0.009 529.165 0.01 529.232C0.015 529.587 0.029 529.942 0.063 530.296C0.077 530.439 0.105 530.578 0.124 530.721C0.16 530.996 0.196 531.274 0.249 531.547C0.287 531.735 0.338 531.917 0.383 532.101C0.438 532.324 0.488 532.547 0.553 532.767C0.62 532.993 0.704 533.209 0.785 533.429C0.849 533.603 0.904 533.779 0.976 533.95C1.086 534.217 1.214 534.476 1.343 534.734C1.402 534.853 1.453 534.975 1.515 535.092C1.692 535.424 1.887 535.744 2.091 536.059C2.119 536.1 2.139 536.145 2.167 536.186C2.168 536.19 2.172 536.193 2.174 536.197C2.452 536.612 2.759 537.008 3.082 537.385C3.182 537.504 3.289 537.614 3.394 537.728C3.618 537.974 3.85 538.209 4.092 538.437C4.226 538.562 4.359 538.688 4.498 538.807C4.754 539.027 5.021 539.233 5.294 539.433C5.409 539.517 5.52 539.608 5.636 539.688C6.025 539.953 6.428 540.195 6.844 540.417C6.946 540.47 7.049 540.515 7.152 540.566C7.486 540.733 7.827 540.887 8.176 541.025C8.308 541.077 8.443 541.125 8.577 541.171C8.907 541.288 9.243 541.393 9.585 541.484C9.722 541.52 9.858 541.557 9.996 541.59C10.347 541.671 10.703 541.735 11.064 541.784C11.193 541.803 11.322 541.829 11.451 541.843C11.895 541.893 12.346 541.922 12.803 541.925C12.839 541.925 12.875 541.932 12.913 541.932C12.922 541.932 12.929 541.931 12.937 541.931C247.476 386.708 378.829 299.22 406.996 279.468C413.247 272.468 412.247 265.801 403.996 259.468ZM25.803 37.012L160.504 126.811C160.52 126.823 160.537 126.833 160.552 126.846L315.346 230.041C315.36 230.049 315.373 230.06 315.387 230.068L376.735 270.966L315.387 311.864C315.373 311.873 315.36 311.883 315.346 311.891L160.552 415.088C160.536 415.101 160.519 415.11 160.504 415.123L25.803 504.922Z"/>
</svg>
