<?xml version="1.0" encoding="iso-8859-1"?>
<!-- Generator: Adobe Illustrator 19.0.0, SVG Export Plug-In . SVG Version: 6.00 Build 0)  -->
<svg version="1.1" id="Layer_1" xmlns="http://www.w3.org/2000/svg" xmlns:xlink="http://www.w3.org/1999/xlink" x="0px" y="0px"
	 viewBox="0 0 512 512" style="enable-background:new 0 0 512 512;" xml:space="preserve">
<polygon style="fill:#EB87BF;" points="489.986,262.984 472.987,237.985 474.987,211.987 479.986,172.989 461.988,150.991 
	456.988,128.992 449.988,79.995 420.99,60.996 385.992,54.997 363.994,60.996 347.994,28.998 315.996,11 279.999,17.999 256,36.998 
	245.001,25.999 226.002,11 188.004,11 160.006,25.999 143.007,54.997 102.01,55.997 62.012,81.995 55.013,139.992 46.013,151.991 
	33.014,187.989 49.013,235.986 32.014,255.984 13.015,286.982 23.015,323.98 41.014,338.979 29.014,375.977 56.013,432.974 
	89.011,453.973 119.009,455.973 134.008,473.971 161.006,494.97 195.004,500.969 221.002,489.971 256,451.973 279.999,483.971 
	337.996,500.969 373.993,486.971 396.992,458.973 423.99,450.973 451.988,433.974 472.987,397.976 478.986,339.979 498.986,292.982 
	"/>
<path d="M511.984,294.021c0-24.554-12.896-46.091-32.279-58.215c7.977-11.203,12.672-24.905,12.672-39.701
	c0-22.209-10.57-41.942-26.951-54.458c2.647-7.648,4.085-15.866,4.085-24.413c0-41.286-33.467-74.761-74.761-74.761
	c-8.352,0-16.382,1.375-23.881,3.906C363.213,19.601,338.559,0,309.333,0C287.068,0,267.469,11.375,256,28.615
	C244.532,11.375,224.932,0,202.668,0c-29.233,0-53.88,19.601-61.536,46.38c-7.499-2.531-15.53-3.906-23.889-3.906
	c-41.286,0-74.753,33.475-74.753,74.761c0,8.546,1.438,16.765,4.085,24.413c-16.382,12.515-26.951,32.248-26.951,54.458
	c0,14.796,4.695,28.499,12.671,39.701C12.913,247.93,0.016,269.468,0.016,294.021c0,21.326,9.727,40.372,24.991,52.957
	c-2.383,8.367-3.656,17.202-3.656,26.334c0,52.529,42.192,95.197,94.533,95.979C129.289,494.688,155.96,512,186.669,512
	c29.639,0,55.512-16.116,69.331-40.068C269.82,495.884,295.693,512,325.332,512c30.709,0,57.379-17.312,70.785-42.709
	c52.34-0.781,94.533-43.449,94.533-95.979c0-9.132-1.273-17.967-3.656-26.334C502.251,334.394,511.984,315.348,511.984,294.021z
	 M186.669,490.666c-32.342,0-58.661-26.319-58.661-58.661c0-16.397,7.203-31.686,18.085-42.341c2-1.938,3.25-4.648,3.25-7.656
	c0-5.891-4.781-10.663-10.671-10.663c-2.906,0-5.547,1.171-7.469,3.062c-15.569,14.594-24.529,34.576-24.529,57.599
	c0,5.272,0.516,10.429,1.491,15.413c-16.467-2-31.701-9.398-43.614-21.311c-14.108-14.102-21.873-32.85-21.873-52.795
	c0-19.943,7.765-38.692,21.873-52.793c14.101-14.101,32.85-21.865,52.794-21.865c6.352,0,12.585,0.773,18.593,2.304
	c0.875,0.234,1.789,0.375,2.734,0.375c5.89,0,10.671-4.78,10.671-10.671c0-5.203-3.734-9.531-8.664-10.469
	c-7.476-1.875-15.288-2.875-23.334-2.875c-35.803,0-67.027,19.602-83.526,48.662c-7.741-8.422-12.468-19.647-12.468-31.959
	c0-16.406,8.319-31.412,22.257-40.131l9.796-6.132c2.891-1.906,4.805-5.187,4.805-8.914c0-2.281-0.711-4.39-1.93-6.125l-6.609-9.289
	c-5.702-8.007-8.718-17.452-8.718-27.327c0-13.929,6.069-26.451,15.694-35.091c13.585,18.765,35.661,30.975,60.598,30.975
	c5.891,0,10.765-4.773,10.765-10.664c0-5.89-4.835-10.663-10.726-10.663c-29.459,0-53.458-23.967-53.458-53.427
	c0-29.459,23.96-53.426,53.419-53.426c7.679,0,14.976,1.633,21.585,4.57c2.249,33.295,29.967,59.614,63.84,59.614
	c5.89,0,10.671-4.773,10.671-10.664c0-5.89-4.781-10.663-10.671-10.663c-23.522-0.008-42.662-19.14-42.662-42.669
	c0-23.522,19.14-42.662,42.662-42.662c23.529,0,42.669,19.14,42.669,42.662v106.666h-0.016c-0.164,5.742-4.875,10.366-10.655,10.366
	c-5.891,0-10.664,4.781-10.664,10.671s4.773,10.664,10.664,10.664c3.741,0,7.327-0.648,10.671-1.828v87.456
	c0,17.64-14.358,31.99-31.998,31.99c-5.891,0-10.671,4.781-10.671,10.672c0,5.89,4.78,10.662,10.671,10.662
	c12.007,0,23.084-3.968,31.998-10.662v101.353C245.337,464.347,219.019,490.666,186.669,490.666z M478.182,325.98
	c-16.498-29.061-47.723-48.662-83.525-48.662c-8.047,0-15.866,1-23.334,2.875c-4.93,0.938-8.664,5.266-8.664,10.469
	c0,5.891,4.781,10.671,10.671,10.671c0.945,0,1.859-0.141,2.734-0.375c5.999-1.53,12.241-2.304,18.593-2.304
	c19.943,0,38.693,7.765,52.793,21.865c14.102,14.101,21.874,32.85,21.874,52.793c0,19.945-7.772,38.693-21.874,52.795
	c-11.912,11.912-27.146,19.311-43.613,21.311c0.976-4.984,1.491-10.141,1.491-15.413c0-23.022-8.968-43.005-24.53-57.599
	c-1.921-1.891-4.562-3.062-7.468-3.062c-5.89,0-10.671,4.772-10.671,10.663c0,3.008,1.25,5.719,3.25,7.656
	c10.882,10.655,18.084,25.943,18.084,42.341c0,32.342-26.318,58.661-58.66,58.661c-32.35,0-58.668-26.319-58.668-58.661V330.652
	c8.914,6.694,19.99,10.662,31.998,10.662c5.891,0,10.671-4.772,10.671-10.662c0-5.891-4.78-10.672-10.671-10.672
	c-17.64,0-31.998-14.351-31.998-31.99v-87.456c3.336,1.18,6.93,1.828,10.671,1.828c5.891,0,10.663-4.773,10.663-10.664
	s-4.772-10.671-10.663-10.671c-5.788,0-10.499-4.625-10.655-10.366h-0.016V63.996c0-23.522,19.139-42.662,42.669-42.662
	c23.522,0,42.661,19.14,42.661,42.662c0,23.53-19.139,42.662-42.661,42.669c-5.89,0-10.671,4.773-10.671,10.663
	c0,5.891,4.781,10.664,10.671,10.664c33.873,0,61.591-26.319,63.84-59.614c6.602-2.937,13.905-4.57,21.577-4.57
	c29.459,0,53.426,23.967,53.426,53.426s-23.998,53.427-53.457,53.427c-5.891,0-10.727,4.773-10.727,10.663
	c0,5.891,4.867,10.664,10.758,10.664c24.936,0,47.021-12.21,60.605-30.975c9.625,8.64,15.687,21.163,15.687,35.091
	c0,9.875-3.008,19.319-8.71,27.327l-6.609,9.289c-1.219,1.734-1.93,3.843-1.93,6.125c0,3.727,1.914,7.007,4.805,8.914l9.788,6.132
	c13.944,8.719,22.265,23.725,22.265,40.131C490.65,306.333,485.916,317.559,478.182,325.98z"/>
<g>
</g>
<g>
</g>
<g>
</g>
<g>
</g>
<g>
</g>
<g>
</g>
<g>
</g>
<g>
</g>
<g>
</g>
<g>
</g>
<g>
</g>
<g>
</g>
<g>
</g>
<g>
</g>
<g>
</g>
</svg>
