<?xml version="1.0" encoding="iso-8859-1"?>
<!-- Generator: Adobe Illustrator 19.0.0, SVG Export Plug-In . SVG Version: 6.00 Build 0)  -->
<svg version="1.1" id="Layer_1" xmlns="http://www.w3.org/2000/svg" xmlns:xlink="http://www.w3.org/1999/xlink" x="0px" y="0px"
	 viewBox="0 0 512 512" style="enable-background:new 0 0 512 512;" xml:space="preserve">
<rect x="8.02" y="39.34" style="fill:#F5F7FA;" width="491.33" height="305.33"/>
<g>
	<rect x="52.672" y="85.34" style="fill:#FC6E51;" width="402.67" height="120.67"/>
	<rect x="321.5" y="180.67" style="fill:#FC6E51;" width="185.83" height="120.67"/>
</g>
<g>
	<rect x="326.17" y="306" style="fill:#FFCE54;" width="178.5" height="120.67"/>
	<rect x="55" y="256" style="fill:#FFCE54;" width="190.33" height="80.5"/>
	<rect x="284" y="251" style="fill:#FFCE54;" width="37.5" height="80.5"/>
</g>
<rect x="5.328" y="344.67" style="fill:#E6E9ED;" width="316.17" height="39.33"/>
<rect x="326.17" y="426.67" style="fill:#656D78;" width="173.17" height="40.656"/>
<polygon style="fill:#CCD1D9;" points="204,386.5 183,467.328 318.5,470 321.5,389 "/>
<path d="M245.328,362.672c0,5.891,4.781,10.672,10.672,10.672s10.656-4.781,10.656-10.672S261.891,352,256,352
	S245.328,356.781,245.328,362.672z"/>
<path d="M117.328,160h277.328c5.891,0,10.672-4.766,10.672-10.656s-4.781-10.672-10.672-10.672H117.328
	c-5.891,0-10.672,4.781-10.672,10.672S111.438,160,117.328,160z"/>
<path d="M501.328,32H10.656C4.766,32,0,36.781,0,42.672V384c0,5.906,4.766,10.672,10.656,10.672h177.031l-12.766,64h-4.266
	c-5.891,0-10.656,4.781-10.656,10.672S164.766,480,170.656,480h320c11.781,0,21.344-9.547,21.344-21.328v-416
	C512,36.781,507.219,32,501.328,32z M448,170.672H330.656c-11.781,0-21.328,9.547-21.328,21.328v10.672H64V96h384V170.672z
	 M309.328,330.672h-10.672v-64h10.672V330.672z M330.656,320h160v96h-160V320z M330.656,298.672V192h160v106.672H330.656z
	 M21.328,53.344h469.328v117.328h-21.328v-96H42.656V224h266.672v21.344h-32v85.328H256v-85.328H42.656v85.328H21.328V53.344z
	 M234.656,266.672v64H64v-64H234.656z M21.328,373.344V352h21.328H256h21.328h32v21.344H256H21.328z M196.672,458.672l12.766-63.922
	h99.891v63.922H196.672z M410.656,458.672h-80v-21.328h80h80v21.328H410.656z"/>
<path d="M421.328,448c0-5.875-4.781-10.656-10.672-10.656S400,442.125,400,448c0,5.906,4.766,10.672,10.656,10.672
	S421.328,453.906,421.328,448z"/>
<path d="M458.656,234.672h-96.078v0.016c-5.859,0.031-10.578,4.781-10.578,10.656c0,5.859,4.719,10.609,10.578,10.656l0,0h96.078
	c5.891,0,10.672-4.766,10.672-10.656C469.328,239.438,464.547,234.672,458.656,234.672z"/>
<path d="M458.656,341.344h-96l0,0c-5.891,0-10.656,4.781-10.656,10.656c0,5.906,4.766,10.672,10.656,10.672l0,0h96
	c5.891,0,10.672-4.766,10.672-10.672C469.328,346.125,464.547,341.344,458.656,341.344z"/>
<path d="M426.656,373.344h-63.875l0,0c-0.031,0-0.078,0-0.125,0c-5.891,0-10.656,4.781-10.656,10.656
	c0,5.906,4.766,10.672,10.656,10.672c0.047,0,0.094,0,0.125-0.016v0.016h63.875c5.891,0,10.672-4.766,10.672-10.672
	C437.328,378.125,432.547,373.344,426.656,373.344z"/>
<g>
</g>
<g>
</g>
<g>
</g>
<g>
</g>
<g>
</g>
<g>
</g>
<g>
</g>
<g>
</g>
<g>
</g>
<g>
</g>
<g>
</g>
<g>
</g>
<g>
</g>
<g>
</g>
<g>
</g>
</svg>
