<svg id="icons" enable-background="new 0 0 64 64" height="512" viewBox="0 0 64 64" width="512" xmlns="http://www.w3.org/2000/svg"><path d="m11.49 16.03v3.97h-.011c-2.199 0-3.989 1.78-3.989 3.99v-7.96h.04c0 1.09.89 1.97 1.98 1.97s1.97-.88 1.97-1.97z" fill="#ccd1d9"/><path d="m48.51 6c0-1.1.891-2 2-2 1.101 0 2 .9 2 2v4c0-1.1.891-2 2-2 1.101 0 2 .9 2 2v18.01c0 2.961-1.609 5.54-4 6.931v4.059h-8.01v-4.189c-1.22-.78-2.26-1.88-3.09-3.101l-6.38-9.399c-.61-.9-.78-2.051 0-2.83.779-.78 2.02-.76 2.83 0l2.649 2.529v-16.01c0-1.1.891-2 2-2 1.101 0 2 .9 2 2v-3c0-1.1.891-2 2-2 1.101 0 2 .9 2 2v3z" fill="#eac6bb"/><path d="m54.49 43v20h-12v-20h1 10z" fill="#656d78"/><path d="m53.49 39v4h-10v-4h1.01 8.01z" fill="#e6e9ed"/><path d="m29.49 19v6.03h-.03c0-1.08-.88-1.97-1.97-1.97-.69 0-1.29.35-1.641.88l-.359.17v-1.11c0-2.21 1.79-4 4-4z" fill="#ccd1d9"/><path d="m27.49 23.061c1.09 0 1.97.89 1.97 1.97 0 .72-.39 1.36-.97 1.7l-.011.01c-.29.17-.63.27-.989.27-1.09 0-1.971-.89-1.971-1.979 0-.4.12-.771.33-1.09.351-.532.951-.881 1.641-.881z" fill="#656d78"/><path d="m25.49 24.11.359-.17c-.21.319-.33.689-.33 1.09 0 1.09.881 1.979 1.971 1.979.359 0 .699-.1.989-.27l-4.989 4.261v-6h.069z" fill="#ccd1d9"/><path d="m23.49 31v.021c0 2.2-1.78 3.979-3.98 3.979h-.01-8.01-.011c-2.199 0-3.989-1.779-3.989-3.979v-7.021-.01c0-2.21 1.79-3.99 3.989-3.99h.011v.01 6.99h8v-6.99-.01h.02c2.2 0 3.98 1.78 3.98 3.99v.02.99z" fill="#e6e9ed"/><path d="m23.49 12v11.99c0-2.21-1.78-3.99-3.98-3.99h-.02v-8h.029c0 1.09.881 1.971 1.971 1.971s1.97-.881 1.97-1.971z" fill="#ccd1d9"/><path d="m23.49 6v6h-.03c0-1.09-.88-1.97-1.97-1.97s-1.97.88-1.97 1.97h-.03v-2-4c0-1.1.899-2 2-2 1.11 0 2 .9 2 2z" fill="#ccd1d9"/><circle cx="21.49" cy="12" fill="#656d78" r="1.97"/><path d="m21.5 43v20h-11.99v-20h.99 10z" fill="#656d78"/><path d="m20.5 39v4h-10v-4h.99 8.01z" fill="#e6e9ed"/><path d="m11.49 35h8.01v4h-8.01z" fill="#ccd1d9"/><path d="m19.49 20.01v6.99h-8v-6.99h4z" fill="#656d78"/><path d="m19.49 12v8h-4v-8-2h.029c0 1.09.881 1.971 1.971 1.971s1.97-.881 1.97-1.971h.03z" fill="#ccd1d9"/><path d="m19.49 6v4h-.03c0-1.09-.88-1.97-1.97-1.97s-1.97.88-1.97 1.97h-.03v-4-3c0-1.1.899-2 2-2 1.109 0 2 .9 2 2z" fill="#ccd1d9"/><circle cx="17.49" cy="10" fill="#656d78" r="1.97"/><path d="m15.49 12v8h-4v-3.97-4.03h.029c0 1.09.881 1.971 1.971 1.971s1.97-.881 1.97-1.971z" fill="#ccd1d9"/><path d="m15.49 10v2h-.03c0-1.09-.88-1.97-1.97-1.97s-1.97.88-1.97 1.97h-.03v-2-4c0-1.1.899-2 2-2 1.109 0 2 .9 2 2z" fill="#ccd1d9"/><circle cx="13.49" cy="12" fill="#656d78" r="1.97"/><path d="m11.49 12v4.03h-.011c0-1.09-.88-1.98-1.97-1.98s-1.979.89-1.979 1.98h-.04v-6.03c0-1.1.899-2 2-2 1.109 0 2 .9 2 2z" fill="#ccd1d9"/><path d="m9.51 14.05c1.09 0 1.97.891 1.97 1.98s-.88 1.97-1.97 1.97-1.98-.88-1.98-1.97.89-1.98 1.98-1.98z" fill="#656d78"/><path d="m56.507 11.004c-.553 0-1-.448-1-1 0-.551-.448-1-1-1s-1 .449-1 1c0 .552-.447 1-1 1s-1-.448-1-1c0-1.654 1.346-3 3-3s3 1.346 3 3c0 .552-.447 1-1 1z"/><path d="m56.507 29.006c-.553 0-1-.448-1-1v-18.002c0-.552.447-1 1-1s1 .448 1 1v18.002c0 .552-.447 1-1 1z"/><path d="m52.507 20.006c-.553 0-1-.448-1-1v-13.002c0-.552.447-1 1-1s1 .448 1 1v13.002c0 .552-.447 1-1 1z"/><path d="m52.507 7.004c-.553 0-1-.448-1-1 0-.551-.448-1-1-1s-1 .449-1 1c0 .552-.447 1-1 1s-1-.448-1-1c0-1.654 1.346-3 3-3s3 1.346 3 3c0 .552-.447 1-1 1z"/><path d="m40.507 23.006c-.553 0-1-.448-1-1v-16.002c0-.552.447-1 1-1s1 .448 1 1v16.002c0 .552-.447 1-1 1z"/><path d="m44.507 7.004c-.553 0-1-.448-1-1 0-.551-.448-1-1-1s-1 .449-1 1c0 .552-.447 1-1 1s-1-.448-1-1c0-1.654 1.346-3 3-3s3 1.346 3 3c0 .552-.447 1-1 1z"/><path d="m48.507 20.006c-.553 0-1-.448-1-1v-16.002c0-.552.447-1 1-1s1 .448 1 1v16.002c0 .552-.447 1-1 1z"/><path d="m48.507 4.004c-.553 0-1-.448-1-1 0-.551-.448-1-1-1s-1 .449-1 1c0 .552-.447 1-1 1s-1-.448-1-1c0-1.654 1.346-3 3-3s3 1.346 3 3c0 .552-.447 1-1 1z"/><path d="m44.507 20.006c-.553 0-1-.448-1-1v-16.002c0-.552.447-1 1-1s1 .448 1 1v16.002c0 .552-.447 1-1 1z"/><path d="m52.508 35.936c-.346 0-.681-.179-.866-.499-.277-.478-.113-1.09.364-1.366 2.159-1.25 3.501-3.574 3.501-6.064 0-.552.447-1 1-1s1 .448 1 1c0 3.202-1.724 6.188-4.499 7.795-.158.091-.33.134-.5.134z"/><path d="m44.498 35.807c-.184 0-.37-.051-.537-.157-1.258-.803-2.393-1.939-3.372-3.377-.312-.457-.193-1.079.264-1.39.455-.312 1.078-.192 1.389.264.826 1.213 1.768 2.162 2.796 2.818.466.297.602.915.305 1.381-.192.298-.515.461-.845.461z"/><path d="m35.031 23.307c-.32 0-.634-.153-.828-.438-.979-1.438-.932-3.046.12-4.098 1.149-1.15 3.002-1.16 4.218-.023.403.377.425 1.01.048 1.413-.377.404-1.012.423-1.413.048-.424-.396-1.056-.405-1.438-.023-.533.533.006 1.392.12 1.559.311.457.192 1.079-.265 1.389-.172.116-.368.173-.562.173z"/><path d="m41.416 32.709c-.32 0-.635-.153-.828-.438l-6.385-9.402c-.311-.457-.191-1.079.266-1.389.457-.311 1.078-.191 1.389.265l6.385 9.402c.311.457.191 1.079-.266 1.389-.172.117-.368.173-.561.173z"/><path d="m40.507 23.006c-.248 0-.497-.092-.69-.276l-2.648-2.527c-.399-.381-.414-1.015-.033-1.414.382-.399 1.016-.414 1.414-.033l2.648 2.527c.399.381.414 1.015.033 1.414-.197.205-.46.309-.724.309z"/><path d="m11.493 11.004c-.553 0-1-.448-1-1 0-.551-.448-1-1-1s-1 .449-1 1c0 .552-.447 1-1 1s-1-.448-1-1c0-1.654 1.346-3 3-3s3 1.346 3 3c0 .552-.447 1-1 1z"/><path d="m7.493 25.004c-.553 0-1-.448-1-1v-14c0-.552.447-1 1-1s1 .448 1 1v14c0 .552-.447 1-1 1z"/><path d="m11.493 21.006c-.553 0-1-.448-1-1v-14.002c0-.552.447-1 1-1s1 .448 1 1v14.002c0 .552-.447 1-1 1z"/><path d="m15.493 7.004c-.553 0-1-.448-1-1 0-.551-.448-1-1-1s-1 .449-1 1c0 .552-.447 1-1 1s-1-.448-1-1c0-1.654 1.346-3 3-3s3 1.346 3 3c0 .552-.447 1-1 1z"/><path d="m23.493 25.006c-.553 0-1-.448-1-1v-18.002c0-.552.447-1 1-1s1 .448 1 1v18.002c0 .552-.447 1-1 1z"/><path d="m23.493 7.004c-.553 0-1-.448-1-1 0-.551-.448-1-1-1s-1 .449-1 1c0 .552-.447 1-1 1s-1-.448-1-1c0-1.654 1.346-3 3-3s3 1.346 3 3c0 .552-.447 1-1 1z"/><path d="m15.493 21.006c-.553 0-1-.448-1-1v-17.002c0-.552.447-1 1-1s1 .448 1 1v17.002c0 .552-.447 1-1 1z"/><path d="m19.493 4.004c-.553 0-1-.448-1-1 0-.551-.448-1-1-1s-1 .449-1 1c0 .552-.447 1-1 1s-1-.448-1-1c0-1.654 1.346-3 3-3s3 1.346 3 3c0 .552-.447 1-1 1z"/><path d="m19.493 21.006c-.553 0-1-.448-1-1v-17.002c0-.552.447-1 1-1s1 .448 1 1v17.002c0 .552-.447 1-1 1z"/><path d="m20.506 39.998h-10c-.553 0-1-.447-1-1s.447-1 1-1h10c.553 0 1 .447 1 1s-.447 1-1 1z"/><path d="m10.506 43.998c-.553 0-1-.447-1-1v-4c0-.553.447-1 1-1s1 .447 1 1v4c0 .553-.447 1-1 1z"/><path d="m20.506 43.998c-.553 0-1-.447-1-1v-4c0-.553.447-1 1-1s1 .447 1 1v4c0 .553-.447 1-1 1z"/><path d="m21.505 63.996c-.553 0-1-.447-1-1v-18.998h-9.998v18.998c0 .553-.447 1-1 1s-1-.447-1-1v-19.998c0-.553.447-1 1-1h11.998c.553 0 1 .447 1 1v19.998c0 .553-.447 1-1 1z"/><path d="m53.493 39.998h-10c-.553 0-1-.447-1-1s.447-1 1-1h10c.553 0 1 .447 1 1s-.447 1-1 1z"/><path d="m53.493 43.998c-.553 0-1-.447-1-1v-4c0-.553.447-1 1-1s1 .447 1 1v4c0 .553-.447 1-1 1z"/><path d="m43.493 43.998c-.553 0-1-.447-1-1v-4c0-.553.447-1 1-1s1 .447 1 1v4c0 .553-.447 1-1 1z"/><path d="m54.492 63.996c-.553 0-1-.447-1-1v-18.998h-9.998v18.998c0 .553-.447 1-1 1s-1-.447-1-1v-19.998c0-.553.447-1 1-1h11.998c.553 0 1 .447 1 1v19.998c0 .553-.447 1-1 1z"/><path d="m11.493 40.001c-.553 0-1-.447-1-1v-4c0-.553.447-1 1-1s1 .447 1 1v4c0 .553-.447 1-1 1z"/><path d="m19.501 40.001c-.553 0-1-.447-1-1v-4c0-.553.447-1 1-1s1 .447 1 1v4c0 .553-.447 1-1 1z"/><path d="m52.507 40.001c-.553 0-1-.447-1-1v-4.065c0-.553.447-1 1-1s1 .447 1 1v4.065c0 .553-.447 1-1 1z"/><path d="m44.499 40.001c-.553 0-1-.447-1-1v-4.194c0-.553.447-1 1-1s1 .447 1 1v4.194c0 .553-.447 1-1 1z"/><path d="m9.508 19c-1.639 0-2.973-1.333-2.973-2.973s1.334-2.973 2.973-2.973 2.973 1.333 2.973 2.973-1.335 2.973-2.973 2.973zm0-3.945c-.536 0-.973.437-.973.973s.437.972.973.972.973-.437.973-.973-.437-.972-.973-.972z"/><path d="m27.492 28.008c-1.639 0-2.973-1.333-2.973-2.973s1.334-2.973 2.973-2.973 2.973 1.333 2.973 2.973-1.334 2.973-2.973 2.973zm0-3.945c-.536 0-.973.437-.973.973s.437.973.973.973.973-.437.973-.973-.437-.973-.973-.973z"/><path d="m13.493 14.973c-1.639 0-2.973-1.333-2.973-2.973s1.334-2.973 2.973-2.973 2.973 1.333 2.973 2.973-1.334 2.973-2.973 2.973zm0-3.946c-.536 0-.973.437-.973.973s.437.973.973.973.973-.437.973-.973-.437-.973-.973-.973z"/><path d="m21.493 14.973c-1.639 0-2.973-1.333-2.973-2.973s1.334-2.973 2.973-2.973 2.973 1.333 2.973 2.973-1.334 2.973-2.973 2.973zm0-3.946c-.536 0-.973.437-.973.973s.437.973.973.973.973-.437.973-.973-.437-.973-.973-.973z"/><path d="m17.493 12.971c-1.639 0-2.973-1.333-2.973-2.973s1.334-2.973 2.973-2.973 2.973 1.333 2.973 2.973-1.334 2.973-2.973 2.973zm0-3.946c-.536 0-.973.437-.973.973s.437.973.973.973.973-.437.973-.973-.437-.973-.973-.973z"/><path d="m19.51 36.001h-8.033c-2.748 0-4.983-2.235-4.983-4.983v-7.031c0-2.749 2.235-4.984 4.983-4.984h8.033c2.748 0 4.983 2.236 4.983 4.984v7.031c0 2.748-2.235 4.983-4.983 4.983zm-8.033-14.999c-1.646 0-2.983 1.339-2.983 2.984v7.031c0 1.645 1.338 2.983 2.983 2.983h8.033c1.646 0 2.983-1.338 2.983-2.983v-7.031c0-1.646-1.338-2.984-2.983-2.984z"/><path d="m23.493 32c-.282 0-.563-.119-.761-.351-.358-.42-.309-1.051.111-1.41l5.001-4.271c.419-.359 1.05-.309 1.41.111.358.42.309 1.051-.111 1.41l-5.001 4.271c-.188.161-.418.24-.649.24z"/><path d="m29.494 26.035c-.553 0-1-.448-1-1v-6.034c0-.552.447-1 1-1s1 .448 1 1v6.034c0 .552-.447 1-1 1z"/><path d="m25.494 24.002c-.553 0-1-.448-1-1 0-2.757 2.243-5 5-5 .553 0 1 .448 1 1s-.447 1-1 1c-1.654 0-3 1.346-3 3 0 .552-.447 1-1 1z"/><path d="m25.494 26.035c-.553 0-1-.448-1-1v-2.033c0-.552.447-1 1-1s1 .448 1 1v2.033c0 .552-.447 1-1 1z"/><path d="m23.558 26c-.378 0-.74-.216-.909-.582-.231-.501-.013-1.095.489-1.327l2.295-1.06c.504-.234 1.096-.012 1.327.489s.013 1.095-.489 1.327l-2.295 1.06c-.136.064-.279.093-.418.093z"/><path d="m19.494 28h-8.001c-.553 0-1-.448-1-1v-6.994c0-.552.447-1 1-1h8.001c.553 0 1 .448 1 1v6.994c0 .552-.447 1-1 1zm-7.001-2h6.001v-4.994h-6.001z"/></svg>