<svg id="icons" enable-background="new 0 0 64 64" height="512" viewBox="0 0 64 64" width="512" xmlns="http://www.w3.org/2000/svg"><g><g><path d="m54.5 34v11c0 1.1-.9 2-2 2h-3v-13z" fill="#a0d468"/></g><g><path d="m49.5 47v2.98h-5v-.98-11-4-10c0-2.21 1.79-4 4-4h1v10 4z" fill="#8cc152"/></g><g><path d="m33.5 49.98h8v13.02h-8z" fill="#5d9cec"/></g><g><path d="m44.5 38v11h-3v-4-7z" fill="#545c66"/></g><g><path d="m22.5 30v4h-3v-10h3z" fill="#545c66"/></g><g><path d="m44.5 24v10h-3v-4-6z" fill="#545c66"/></g><g><path d="m53.5 54v5c0 2.2-1.8 4-4 4h-5v-13.02h5v.02c2.2 0 4 1.8 4 4z" fill="#5d9cec"/></g><g><path d="m19.5 49v.98h-5v-2.98-13-4-10h1c2.21 0 4 1.79 4 4v10 4z" fill="#8cc152"/></g><g><path d="m41.5 34h3v4h-3z" fill="#e6e9ed"/></g><g><path d="m19.5 34h3v4h-3z" fill="#e6e9ed"/></g><g><path d="m44.5 49v.98 13.02h-3v-13.02-.98z" fill="#656d78"/></g><g><path d="m54.5 32v2h-5v-4h3c1.1 0 2 .89 2 2z" fill="#656d78"/></g><g><path d="m22.5 45v4h-3v-11h3z" fill="#545c66"/></g><g><path d="m19.5 49.98v13.02h-5c-2.2 0-4-1.8-4-4v-5c0-2.2 1.8-4 4-4v-.02z" fill="#5d9cec"/></g><g><path d="m14.5 34v13h-3c-1.1 0-2-.9-2-2v-11z" fill="#a0d468"/></g><g><path d="m14.5 30v4h-5v-2c0-1.11.9-2 2-2z" fill="#656d78"/></g><g><path d="m22.5 49v.98 13.02h-3v-13.02-.98z" fill="#656d78"/></g><g><path d="m22.5 49.98h8v13.02h-8z" fill="#5d9cec"/></g><g><path d="m33.5 49.98v13.02h-3v-13.02-.98h3z" fill="#656d78"/></g><g><path d="m41.5 38v7h-19v-7-4-4h19v4z" fill="#a0d468"/></g><g><path d="m41.5 49v.98h-8v-.98h-3v.98h-8v-.98-4h19z" fill="#8cc152"/></g><g><path d="m41.5 24v6h-19v-6c0-2.21 1.79-4 4-4h11c2.21 0 4 1.79 4 4z" fill="#8cc152"/></g><g><path d="m19.5 1h9v3h-9z" fill="#656d78"/></g><g><path d="m35.5 1h9v3h-9z" fill="#656d78"/></g><g><path d="m49.5 8v12h-1c-2.21 0-4 1.79-4 4h-3c0-2.21-1.79-4-4-4h-11c-2.21 0-4 1.79-4 4h-3c0-2.21-1.79-4-4-4h-1v-12c0-2.2 1.8-4 4-4h1 9 7 9 1c2.2 0 4 1.8 4 4z" fill="#a0d468"/></g></g><g><g><path d="m49.501 50.983c-.553 0-1-.447-1-1v-41.979c0-1.654-1.346-3-3-3h-27.001c-1.654 0-3 1.346-3 3v41.979c0 .553-.447 1-1 1s-1-.447-1-1v-41.979c0-2.757 2.243-5 5-5h27.001c2.757 0 5 2.243 5 5v41.979c0 .553-.447 1-1 1z"/></g><g><path d="m49.5 63.996c-.553 0-1-.447-1-1s.447-1 1-1c1.654 0 3-1.346 3-3v-4.999c0-1.654-1.346-3-3-3-.553 0-1-.447-1-1s.447-1 1-1c2.757 0 5 2.243 5 5v4.999c0 2.757-2.243 5-5 5z"/></g><g><path d="m14.501 63.996c-2.757 0-5-2.243-5-5v-4.999c0-2.757 2.243-5 5-5 .553 0 1 .447 1 1s-.447 1-1 1c-1.654 0-3 1.346-3 3v4.999c0 1.654 1.346 3 3 3 .553 0 1 .447 1 1s-.447 1-1 1z"/></g><g><path d="m28.501 5.004h-9c-.553 0-1-.447-1-1v-3.003c0-.553.447-1 1-1h9c.553 0 1 .447 1 1v3.003c0 .553-.447 1-1 1zm-8-2h7v-1.003h-7z"/></g><g><path d="m44.501 5.004h-9c-.553 0-1-.447-1-1v-3.003c0-.553.447-1 1-1h9c.553 0 1 .447 1 1v3.003c0 .553-.447 1-1 1zm-8-2h7v-1.003h-7z"/></g><g><path d="m22.501 63.999h-3c-.553 0-1-.447-1-1v-14c0-.553.447-1 1-1h3c.553 0 1 .447 1 1v14c0 .553-.447 1-1 1zm-2-2h1v-12h-1z"/></g><g><path d="m33.5 63.999h-3c-.553 0-1-.447-1-1v-14c0-.553.447-1 1-1h3c.553 0 1 .447 1 1v14c0 .553-.447 1-1 1zm-2-2h1v-12h-1z"/></g><g><path d="m44.499 63.999h-3c-.553 0-1-.447-1-1v-14c0-.553.447-1 1-1h3c.553 0 1 .447 1 1v14c0 .553-.447 1-1 1zm-2-2h1v-12h-1z"/></g><g><path d="m49.5 63.996h-34.999c-.553 0-1-.447-1-1s.447-1 1-1h34.999c.553 0 1 .447 1 1s-.447 1-1 1z"/></g><g><path d="m49.501 50.983h-5.001c-.553 0-1-.447-1-1s.447-1 1-1h5.001c.553 0 1 .447 1 1s-.447 1-1 1z"/></g><g><path d="m41.5 50.983h-8c-.553 0-1-.447-1-1s.447-1 1-1h8c.553 0 1 .447 1 1s-.447 1-1 1z"/></g><g><path d="m30.5 50.983h-7.999c-.553 0-1-.447-1-1s.447-1 1-1h7.999c.553 0 1 .447 1 1s-.447 1-1 1z"/></g><g><path d="m19.5 50.983h-5c-.553 0-1-.447-1-1s.447-1 1-1h5c.553 0 1 .447 1 1s-.447 1-1 1z"/></g><g><path d="m14.501 48h-3c-1.654 0-3-1.346-3-3v-13c0-.553.447-1 1-1s1 .447 1 1v13c0 .552.448 1 1 1h3c.553 0 1 .447 1 1s-.447 1-1 1z"/></g><g><path d="m14.499 35.002h-4.998c-.553 0-1-.447-1-1s.447-1 1-1h4.998c.553 0 1 .447 1 1s-.447 1-1 1z"/></g><g><path d="m9.501 33c-.553 0-1-.447-1-1 0-1.654 1.347-3.001 3.001-3.001.553 0 1 .447 1 1s-.447 1-1 1c-.552 0-1.001.449-1.001 1.001 0 .553-.447 1-1 1z"/></g><g><path d="m14.501 30.999h-2.999c-.553 0-1-.447-1-1s.447-1 1-1h2.999c.553 0 1 .447 1 1s-.447 1-1 1z"/></g><g><path d="m52.499 48h-3c-.553 0-1-.447-1-1s.447-1 1-1h3c.552 0 1-.448 1-1v-13c0-.553.447-1 1-1s1 .447 1 1v13c0 1.654-1.346 3-3 3z"/></g><g><path d="m54.499 35.002h-4.998c-.553 0-1-.447-1-1s.447-1 1-1h4.998c.553 0 1 .447 1 1s-.447 1-1 1z"/></g><g><path d="m54.499 33c-.553 0-1-.447-1-1 0-.552-.449-1.001-1.001-1.001-.553 0-1-.447-1-1s.447-1 1-1c1.654 0 3.001 1.347 3.001 3.001 0 .553-.447 1-1 1z"/></g><g><path d="m52.498 30.999h-2.999c-.553 0-1-.447-1-1s.447-1 1-1h2.999c.553 0 1 .447 1 1s-.447 1-1 1z"/></g><g><path d="m19.501 25c-.553 0-1-.447-1-1 0-1.654-1.346-3-3-3-.553 0-1-.447-1-1s.447-1 1-1c2.757 0 5 2.243 5 5 0 .553-.447 1-1 1z"/></g><g><path d="m22.503 25c-.553 0-1-.447-1-1 0-2.757 2.243-5 5-5 .553 0 1 .447 1 1s-.447 1-1 1c-1.654 0-3 1.346-3 3 0 .553-.447 1-1 1z"/></g><g><path d="m41.498 25c-.553 0-1-.447-1-1 0-1.654-1.346-3-3-3-.553 0-1-.447-1-1s.447-1 1-1c2.757 0 5 2.243 5 5 0 .553-.447 1-1 1z"/></g><g><path d="m44.5 25c-.553 0-1-.447-1-1 0-2.757 2.243-5 5-5 .553 0 1 .447 1 1s-.447 1-1 1c-1.654 0-3 1.346-3 3 0 .553-.447 1-1 1z"/></g><g><path d="m37.498 21h-10.995c-.553 0-1-.447-1-1s.447-1 1-1h10.995c.553 0 1 .447 1 1s-.447 1-1 1z"/></g><g><path d="m22.503 25h-3.002c-.553 0-1-.447-1-1s.447-1 1-1h3.002c.553 0 1 .447 1 1s-.447 1-1 1z"/></g><g><path d="m44.5 25h-3.002c-.553 0-1-.447-1-1s.447-1 1-1h3.002c.553 0 1 .447 1 1s-.447 1-1 1z"/></g><g><path d="m22.503 49.999h-3.002c-.553 0-1-.447-1-1v-24.999c0-.553.447-1 1-1h3.002c.553 0 1 .447 1 1v24.999c0 .553-.447 1-1 1zm-2.002-2h1.002v-22.999h-1.002z"/></g><g><path d="m44.5 49.999h-3.002c-.553 0-1-.447-1-1v-24.999c0-.553.447-1 1-1h3.002c.553 0 1 .447 1 1v24.999c0 .553-.447 1-1 1zm-2.002-2h1.002v-22.999h-1.002z"/></g><g><path d="m15.501 21h-1c-.553 0-1-.447-1-1s.447-1 1-1h1c.553 0 1 .447 1 1s-.447 1-1 1z"/></g><g><path d="m49.501 21h-1.001c-.553 0-1-.447-1-1s.447-1 1-1h1.001c.553 0 1 .447 1 1s-.447 1-1 1z"/></g><g><path d="m22.503 39h-3.003c-.553 0-1-.447-1-1v-3.998c0-.553.447-1 1-1h3.003c.553 0 1 .447 1 1v3.998c0 .553-.447 1-1 1zm-2.003-2h1.003v-1.998h-1.003z"/></g><g><path d="m44.501 39h-3.003c-.553 0-1-.447-1-1v-3.998c0-.553.447-1 1-1h3.003c.553 0 1 .447 1 1v3.998c0 .553-.447 1-1 1zm-2.003-2h1.003v-1.998h-1.003z"/></g><g><path d="m41.498 46h-18.995c-.553 0-1-.447-1-1v-15.001c0-.553.447-1 1-1h18.995c.553 0 1 .447 1 1v15.001c0 .553-.447 1-1 1zm-17.995-2h16.995v-13.001h-16.995z"/></g><g><path d="m40.501 11.991h-17.001c-.553 0-1-.447-1-1s.447-1 1-1h17.001c.553 0 1 .447 1 1s-.447 1-1 1z"/></g><g><path d="m35.496 15h-6.991c-.553 0-1-.447-1-1s.447-1 1-1h6.991c.553 0 1 .447 1 1s-.447 1-1 1z"/></g></g></svg>